HIERARCHY
ROOT Hips
{
	OFFSET 0.00000 0.00000 0.00000
	CHANNELS 6 Xposition Yposition Zposition Zrotation Yrotation Xrotation 
	JOINT LHipJoint
	{
		OFFSET 0 0 0
		CHANNELS 3 Zrotation Yrotation Xrotation
		JOINT LeftUpLeg
		{
			OFFSET 1.61328 -1.70571 0.84375
			CHANNELS 3 Zrotation Yrotation Xrotation
			JOINT LeftLeg
			{
				OFFSET 2.32400 -6.38513 0.00000
				CHANNELS 3 Zrotation Yrotation Xrotation
				JOINT LeftFoot
				{
					OFFSET 2.58843 -7.11166 0.00000
					CHANNELS 3 Zrotation Yrotation Xrotation
					JOINT LeftToeBase
					{
						OFFSET 0.17200 -0.47257 2.47970
						CHANNELS 3 Zrotation Yrotation Xrotation
						End Site
						{
							OFFSET 0.00000 -0.00000 1.26912
						}
					}
				}
			}
		}
	}
	JOINT RHipJoint
	{
		OFFSET 0 0 0
		CHANNELS 3 Zrotation Yrotation Xrotation
		JOINT RightUpLeg
		{
			OFFSET -1.49930 -1.70570 0.84375
			CHANNELS 3 Zrotation Yrotation Xrotation
			JOINT RightLeg
			{
				OFFSET -2.30458 -6.33178 0.00000
				CHANNELS 3 Zrotation Yrotation Xrotation
				JOINT RightFoot
				{
					OFFSET -2.62261 -7.20556 0.00000
					CHANNELS 3 Zrotation Yrotation Xrotation
					JOINT RightToeBase
					{
						OFFSET -0.18709 -0.51403 2.51340
						CHANNELS 3 Zrotation Yrotation Xrotation
						End Site
						{
							OFFSET -0.00000 -0.00000 1.28858
						}
					}
				}
			}
		}
	}
	JOINT LowerBack
	{
		OFFSET 0 0 0
		CHANNELS 3 Zrotation Yrotation Xrotation
		JOINT Spine
		{
			OFFSET -0.03798 2.19274 -0.19881
			CHANNELS 3 Zrotation Yrotation Xrotation
			JOINT Spine1
			{
				OFFSET -0.00024 2.19460 0.05248
				CHANNELS 3 Zrotation Yrotation Xrotation
				JOINT Neck
				{
					OFFSET 0 0 0
					CHANNELS 3 Zrotation Yrotation Xrotation
					JOINT Neck1
					{
						OFFSET -0.00746 1.82323 0.17286
						CHANNELS 3 Zrotation Yrotation Xrotation
						JOINT Head
						{
							OFFSET 0.11826 1.82121 -0.27841
							CHANNELS 3 Zrotation Yrotation Xrotation
							End Site
							{
								OFFSET 0.03496 1.85543 -0.11495
							}
						}
					}
				}
				JOINT LeftShoulder
				{
					OFFSET 0 0 0
					CHANNELS 3 Zrotation Yrotation Xrotation
					JOINT LeftArm
					{
						OFFSET 3.71926 0.78840 0.25473
						CHANNELS 3 Zrotation Yrotation Xrotation
						JOINT LeftForeArm
						{
							OFFSET 5.37587 -0.00000 0.00000
							CHANNELS 3 Zrotation Yrotation Xrotation
							JOINT LeftHand
							{
								OFFSET 3.35977 -0.00000 0.00000
								CHANNELS 3 Zrotation Yrotation Xrotation
								JOINT LeftFingerBase
								{
									OFFSET 0 0 0
									CHANNELS 3 Zrotation Yrotation Xrotation
									JOINT LeftHandIndex1
									{
										OFFSET 0.56186 -0.00000 0.00000
										CHANNELS 3 Zrotation Yrotation Xrotation
										End Site
										{
											OFFSET 0.45299 -0.00000 0.00000
										}
									}
								}
								JOINT LThumb
								{
									OFFSET 0 0 0
									CHANNELS 3 Zrotation Yrotation Xrotation
									End Site
									{
										OFFSET 0.45990 -0.00000 0.45990
									}
								}
							}
						}
					}
				}
				JOINT RightShoulder
				{
					OFFSET 0 0 0
					CHANNELS 3 Zrotation Yrotation Xrotation
					JOINT RightArm
					{
						OFFSET -3.65136 0.56074 0.01624
						CHANNELS 3 Zrotation Yrotation Xrotation
						JOINT RightForeArm
						{
							OFFSET -5.22819 -0.00000 0.00000
							CHANNELS 3 Zrotation Yrotation Xrotation
							JOINT RightHand
							{
								OFFSET -3.40764 -0.00000 0.00000
								CHANNELS 3 Zrotation Yrotation Xrotation
								JOINT RightFingerBase
								{
									OFFSET 0 0 0
									CHANNELS 3 Zrotation Yrotation Xrotation
									JOINT RightHandIndex1
									{
										OFFSET -0.58325 -0.00000 0.00000
										CHANNELS 3 Zrotation Yrotation Xrotation
										End Site
										{
											OFFSET -0.47024 -0.00000 0.00000
										}
									}
								}
								JOINT RThumb
								{
									OFFSET 0 0 0
									CHANNELS 3 Zrotation Yrotation Xrotation
									End Site
									{
										OFFSET -0.47742 -0.00000 0.47742
									}
								}
							}
						}
					}
				}
			}
		}
	}
}
MOTION
Frames: 16
Frame Time: 0.0555556
0.00 0.00 0.00 -8.5676 -85.8336 6.8247 0.0000 0.0000 0.0000 -21.9452 4.4478 -13.0453 2.9282 10.5779 30.8692 0.8360 -2.7692 -16.5625 0.0070 0.5407 1.4857 0.0000 0.0000 0.0000 13.7142 -0.7896 -27.9979 -15.6629 -19.5429 77.2258 -1.2373 -19.0019 22.3920 -1.5883 -7.9500 22.5622 -0.2327 0.8760 7.6153 -0.0390 1.1060 1.7761 -0.0146 0.5350 -2.4370 -0.0399 0.6598 -3.5292 4.9527 1.0275 -18.3014 1.5389 -0.0156 -4.9386 -0.0000 0.0000 0.0000 -69.5740 20.9039 57.0737 52.4864 -53.9504 -28.1723 -0.0000 0.0000 -8.6612 13.0888 16.3247 3.7391 -7.1250 0.0000 -0.0000 -13.8334 46.2407 -0.4317 -0.0000 0.0000 0.0000 84.5664 -15.2474 35.1074 -30.2353 41.0942 -11.5640 0.0000 -0.0000 -5.1231 -27.3044 3.3856 -1.7462 7.1250 -0.0000 -0.0000 -0.5234 -26.1707 -0.2389
0.00 0.00 0.00 -26.8872 -85.7777 24.3040 0.0000 0.0000 0.0000 -20.8452 5.3817 -4.3850 1.8025 8.4420 24.0648 0.7957 -0.5918 -16.6679 0.0001 -0.0482 -0.1324 0.0000 0.0000 0.0000 15.8530 0.1922 -30.5641 -16.3594 -19.6792 79.3007 -0.1973 -8.9604 9.4482 -0.7635 -5.5799 15.5702 0.1494 -0.0077 6.0176 0.0173 -0.0181 1.0023 -0.0643 -0.0178 -2.3411 0.0296 1.1509 -5.3918 4.1281 1.4948 -15.5950 1.3689 0.3514 -4.2243 0.0000 -0.0000 0.0000 -75.4333 12.0957 53.5094 48.1952 -52.2411 -24.7400 -0.0000 0.0000 -7.0247 15.0557 16.9156 4.4752 -7.1250 0.0000 -0.0000 -12.2121 47.0847 -0.6374 0.0000 -0.0000 0.0000 84.2466 -17.8588 35.4187 -26.0596 37.2675 -8.9237 0.0000 -0.0000 -8.3114 -23.7061 1.9944 -0.8755 7.1250 -0.0000 -0.0000 2.2186 -27.7996 0.9285
0.00 0.00 0.00 -7.4524 -85.2652 8.0183 0.0000 0.0000 0.0000 -20.1958 11.0893 11.1155 0.1581 2.5622 7.0622 0.7314 -1.1259 -15.8146 0.0379 -1.2566 -3.4551 0.0000 0.0000 0.0000 16.2334 9.6188 -34.1731 -4.6491 -12.9774 39.2841 -0.8354 3.8104 -16.4064 -0.2681 -3.3308 9.2010 -2.5571 -1.3633 6.0780 -0.7158 -2.0243 0.6664 0.8636 -0.9915 -2.6571 -0.8468 1.0851 -10.6724 4.7727 1.2802 -13.8697 1.7160 0.3124 -2.6888 0.0000 0.0000 0.0000 -78.9883 -9.0858 60.5685 73.0875 -58.8912 -45.4079 -0.0000 0.0000 -11.0651 11.8422 14.5221 3.0097 -7.1250 0.0000 -0.0000 -14.4036 44.3142 0.2492 0.0000 0.0000 0.0000 79.1004 -22.0838 37.3563 -27.6389 38.7817 -9.8967 0.0000 -0.0000 -8.9676 -22.4195 2.0148 -0.8310 7.1250 -0.0000 -0.0000 3.2106 -27.7957 1.3449
0.00 0.00 0.00 16.0137 -78.5686 -9.3933 0.0000 0.0000 0.0000 -15.4372 4.5132 -2.6278 5.4539 13.8774 42.7487 0.0190 -5.2630 -4.2622 0.7616 -5.5733 -15.5512 0.0000 0.0000 0.0000 17.5627 11.7061 -26.4153 -6.2366 -14.6538 45.9240 -1.6178 -1.1007 -24.4664 -1.2546 -7.1009 20.0147 0.5956 -1.7465 6.6061 1.3512 -2.2954 1.9158 1.2377 -1.1637 -1.6938 0.8347 0.7789 -14.2764 4.0247 0.5525 1.3980 1.2135 0.4071 2.9597 -0.0000 -0.0000 0.0000 -84.8117 6.6875 52.3214 32.0471 -42.5847 -12.7727 -0.0000 0.0000 -13.1672 18.9739 16.5970 5.6089 -7.1250 0.0000 -0.0000 -8.4686 47.2936 -0.4826 -0.0000 -0.0000 0.0000 82.9327 -17.3153 32.7972 -26.8969 38.0807 -9.4355 0.0000 -0.0000 -9.7376 -24.4787 2.6885 -1.2234 7.1250 -0.0000 -0.0000 1.6214 -27.0253 0.7079
0.00 0.00 0.00 3.3664 -46.7285 1.0577 0.0000 0.0000 0.0000 -23.0141 11.2604 -25.4140 3.9193 12.0522 35.9169 1.1169 5.1519 -22.4456 0.3251 -3.6650 -10.1360 0.0000 0.0000 0.0000 18.9392 -1.3892 -22.3809 -5.2565 -13.6670 41.9195 -2.8679 -0.8082 -32.3809 -1.2547 -7.1013 20.0159 4.5344 -0.5547 6.1230 3.3853 -0.6029 4.0341 0.9765 -0.2920 0.7261 3.0287 2.3720 -12.0640 -7.2199 4.3037 25.8699 -2.5727 1.3408 10.4896 0.0000 -0.0000 0.0000 -74.4567 19.8192 54.5474 28.0870 -39.1962 -10.1786 -0.0000 0.0000 -18.4576 20.6642 19.2335 7.0822 -7.1250 0.0000 -0.0000 -7.5927 50.2765 -0.9925 0.0000 -0.0000 0.0000 82.3130 -16.2571 25.4613 -26.3808 37.5822 -9.1189 0.0000 -0.0000 -7.6346 -26.8158 3.9712 -2.0049 7.1250 -0.0000 -0.0000 -0.1372 -25.5319 -0.0647
0.00 0.00 0.00 -3.5196 -16.2004 -0.0789 0.0000 0.0000 0.0000 -24.0891 16.5797 -22.8316 3.1606 10.9506 32.1134 0.7821 13.2415 -26.2367 0.0050 0.4546 1.2492 0.0000 0.0000 0.0000 24.3423 -16.4181 -23.2899 -9.2991 -16.9964 57.1187 -2.0164 -8.3272 -30.8723 -0.4312 -4.2140 11.6794 3.7583 -0.2851 3.8827 2.8534 -0.3334 3.5992 0.8345 -0.1323 1.5229 5.2319 4.1925 -11.1914 -8.4627 6.8277 23.8873 -3.0344 2.7013 9.8849 0.0000 -0.0000 0.0000 -76.3594 16.3076 54.6287 28.8167 -39.8573 -10.6431 -0.0000 0.0000 -17.8491 17.0017 19.1470 5.7269 -7.1250 0.0000 -0.0000 -11.1047 49.6084 -1.2758 0.0000 -0.0000 0.0000 84.2957 -16.1860 24.9254 -26.5628 37.7591 -9.2301 0.0000 -0.0000 -7.5481 -27.1010 3.1401 -1.6057 7.1250 -0.0000 -0.0000 -0.3753 -26.4532 -0.1688
0.00 0.00 0.00 -176.0350 22.8697 -180.8150 0.0000 0.0000 0.0000 -17.0145 0.5776 -6.7349 2.1065 9.0845 26.0601 -0.8656 -20.6825 -6.1611 0.1355 2.3722 6.5356 0.0000 0.0000 0.0000 17.7679 22.2861 -15.4820 -5.5150 -13.9412 43.0025 1.0483 22.1435 -6.0063 -0.1863 -2.7796 7.6657 -0.4861 -0.5030 4.5185 -0.5902 -0.4663 4.2824 -0.3175 -0.1465 1.8667 4.6624 5.0778 -12.0106 -8.9482 10.0821 25.0731 -2.5733 4.5820 10.7389 -0.0000 -0.0000 0.0000 -73.3630 -4.1776 59.3579 43.7013 -50.1162 -21.2374 -0.0000 0.0000 -19.6381 18.5474 15.7615 5.2074 -7.1250 0.0000 -0.0000 -8.6497 46.3748 -0.2957 -0.0000 -0.0000 0.0000 89.1171 -19.1798 25.2116 -25.4599 36.6704 -8.5631 0.0000 -0.0000 -2.5378 -25.3394 6.3142 -2.9813 7.1250 -0.0000 -0.0000 1.0314 -22.9999 0.5465
0.00 0.00 0.00 -177.4920 3.5746 -178.8310 0.0000 0.0000 0.0000 -14.8761 -8.1997 -9.5727 2.2637 9.3951 27.0392 -2.8204 -28.2768 8.1187 1.0391 6.4833 18.1933 0.0000 0.0000 0.0000 16.7739 24.1699 -11.6020 -3.8907 -12.0135 35.7796 0.9180 21.2616 -6.3184 -1.7614 -8.3503 23.7831 1.2929 -0.2527 5.0760 -0.7416 0.0659 5.0158 -1.4830 0.2350 2.3168 4.6034 4.8813 -11.4303 -10.3934 10.8589 24.9843 -2.9568 4.9804 10.7490 -0.0000 -0.0000 0.0000 -74.3213 -2.8464 56.3331 31.9532 -42.5098 -12.7092 -0.0000 0.0000 -18.7290 20.9600 16.2152 6.1056 -7.1250 0.0000 -0.0000 -6.5057 47.1719 -0.3501 -0.0000 -0.0000 0.0000 88.6668 -18.0897 27.1825 -25.6270 36.8380 -8.6630 0.0000 -0.0000 -2.8361 -25.6234 6.0174 -2.8784 7.1250 -0.0000 -0.0000 0.8127 -23.3118 0.4248
0.00 0.00 0.00 -179.8170 -13.6708 -176.5470 0.0000 0.0000 0.0000 -14.4670 -15.5222 -14.2606 2.4393 9.7267 28.0960 -2.3152 -26.5015 17.3204 1.5427 7.8404 22.2304 0.0000 0.0000 0.0000 17.4911 21.0530 -12.1381 -3.9914 -12.1489 36.2609 -1.3114 7.1726 -20.4698 -0.7184 -5.4162 15.0996 3.8526 0.7766 6.0422 0.0109 0.7474 5.8278 -2.1818 0.3266 2.7003 4.2927 6.5765 -11.4475 -9.8805 9.6303 25.8221 -3.1329 3.1827 10.9249 0.0000 -0.0000 0.0000 -73.1946 -0.6649 47.9739 22.6987 -33.7576 -6.9701 -0.0000 0.0000 -16.7297 24.1538 17.4089 7.6418 -7.1250 0.0000 -0.0000 -3.7232 48.9086 -0.3594 0.0000 -0.0000 0.0000 85.2639 -14.3795 28.7308 -25.5317 36.7425 -8.6060 0.0000 -0.0000 -3.6894 -25.3533 5.8543 -2.7670 7.1250 -0.0000 -0.0000 1.0078 -23.5067 0.5223
0.00 0.00 0.00 1.5757 -74.2231 -362.4560 0.0000 0.0000 0.0000 -21.3868 7.3368 -4.4467 2.1337 9.1391 26.2315 0.7972 -10.2399 -16.4256 0.1555 -2.5406 -7.0022 0.0000 0.0000 0.0000 13.8050 -1.5402 -40.5347 -15.4115 -19.4875 76.4731 -0.0873 5.7003 -6.1707 -0.0221 -0.9608 2.6410 -0.3934 0.0225 7.7495 0.2760 -0.0540 2.9296 0.5103 -0.0557 -1.3188 -4.3395 -5.4044 -11.8928 6.8518 -8.3985 20.4459 2.0681 -3.7015 8.8255 -0.0000 0.0000 0.0000 -65.2416 1.1857 51.0067 47.9114 -52.1176 -24.5158 -0.0000 0.0000 -15.8914 14.6315 16.2883 4.1878 -7.1250 0.0000 -0.0000 -12.4103 46.4014 -0.4358 -0.0000 0.0000 0.0000 75.0273 -16.7693 42.8340 -28.6158 39.6770 -10.5145 0.0000 -0.0000 -6.4757 -24.2188 4.8583 -2.1816 7.1250 -0.0000 -0.0000 1.8325 -24.6553 0.9014
0.00 0.00 0.00 19.1291 -72.4993 -371.3240 0.0000 0.0000 0.0000 -18.7339 13.2009 18.7905 0.0000 0.0000 0.0000 -0.0988 -6.4775 -1.1677 1.4278 -7.5557 -21.3725 0.0000 0.0000 0.0000 6.3328 15.5271 -41.3666 -5.1908 -13.5955 41.6407 -0.5580 -4.0753 -16.1867 -1.6685 -8.1385 23.1357 -2.5492 -1.8653 8.5531 -0.2482 -2.7507 1.8430 1.4693 -1.3672 -2.7735 -3.4372 -4.0223 -11.6526 6.1241 -6.0893 16.1679 1.9534 -2.6498 7.1665 0.0000 -0.0000 0.0000 -62.8378 -14.5844 57.2913 84.8482 -59.8995 -55.5399 -0.0000 0.0000 -21.4655 16.9342 13.5579 4.0827 -7.1250 0.0000 -0.0000 -9.5861 43.9173 0.2586 0.0000 -0.0000 0.0000 58.4195 -25.8538 40.9958 -27.1476 38.3196 -9.5905 0.0000 -0.0000 -5.1217 -26.4211 4.8523 -2.4066 7.1250 -0.0000 -0.0000 0.1847 -24.5646 0.0912
0.00 0.00 0.00 45.7797 -84.6682 -401.3580 0.0000 0.0000 0.0000 -19.5769 13.4713 10.8813 0.8198 5.7773 16.1395 0.1689 -0.0738 -7.7366 2.1364 -9.1446 -26.2487 0.0000 0.0000 0.0000 8.7047 16.6727 -33.8500 -3.3007 -11.1666 32.8438 -1.2485 0.8648 -20.8620 -0.8395 -5.8445 16.3338 -2.0207 -1.7377 7.1219 0.1443 -2.4870 1.3449 1.5087 -1.2351 -2.5086 -0.9656 -0.9012 -16.1013 0.9455 -1.9125 28.5348 0.1888 -1.0491 12.0728 0.0000 -0.0000 0.0000 -69.0525 -4.4879 77.8623 102.9410 -59.3576 -71.1831 -0.0000 0.0000 -21.7799 22.0861 8.2001 3.3124 -7.1250 0.0000 -0.0000 -4.1313 38.7885 0.6334 0.0000 -0.0000 0.0000 69.6588 -27.5347 42.2261 -31.2413 41.9339 -12.2308 0.0000 -0.0000 -8.5651 -29.1759 6.2230 -3.4634 7.1250 -0.0000 -0.0000 -1.7953 -22.8622 -0.9572
0.00 0.00 0.00 1.1899 44.8356 -356.5600 0.0000 0.0000 0.0000 -19.2530 7.2683 -21.9410 4.8417 13.2033 40.1343 1.2555 5.0210 -23.5200 0.6557 -5.1792 -14.4205 0.0000 0.0000 0.0000 21.0256 3.4264 -17.0487 -4.3171 -12.5709 37.7826 -3.7437 -13.1435 -42.6746 -2.0651 -9.0005 25.7968 3.7912 0.1657 5.3008 1.5669 0.4089 4.1970 -0.5290 0.2916 1.3665 4.5684 2.8326 -11.4912 -4.1318 4.1069 21.9784 -1.7063 1.9377 8.9470 -0.0000 -0.0000 0.0000 -67.1265 3.9471 59.3418 26.1463 -37.3528 -8.9763 -0.0000 0.0000 -20.0799 22.0873 16.6753 6.6418 -7.1250 0.0000 -0.0000 -5.5454 47.8164 -0.3865 -0.0000 -0.0000 0.0000 82.6501 -10.8000 34.2132 -31.7336 42.3338 -12.5611 0.0000 -0.0000 -4.4983 -28.4101 7.6782 -4.1337 7.1250 -0.0000 -0.0000 -1.1487 -21.2661 -0.6540
0.00 0.00 0.00 -6.2641 74.1365 -363.0010 0.0000 0.0000 0.0000 -20.7310 5.8363 -19.2276 2.8709 10.4831 30.5556 1.2585 0.2219 -21.2976 0.0013 -0.2307 -0.6338 0.0000 0.0000 0.0000 21.0570 -5.7640 -26.3978 -8.2801 -16.3215 53.5655 -6.1666 -7.0161 -49.5652 -4.4097 -12.6865 38.2061 1.3723 0.4877 5.7647 0.2471 0.7892 4.0806 -0.5526 0.4537 0.9810 2.8214 1.3461 -11.6036 -2.4574 1.9512 18.6604 -1.0736 0.9580 7.7130 0.0000 -0.0000 0.0000 -68.8755 5.1764 58.3320 24.5149 -35.7041 -8.0051 -0.0000 0.0000 -19.0400 18.3542 17.9021 5.8230 -7.1250 0.0000 -0.0000 -9.4201 48.5465 -0.8309 0.0000 -0.0000 0.0000 81.5917 -12.1316 38.1766 -32.4635 42.9136 -13.0553 0.0000 -0.0000 -4.7232 -28.2244 7.4648 -3.9889 7.1250 -0.0000 -0.0000 -1.0271 -21.5218 -0.5788
0.00 0.00 0.00 -191.6750 72.2491 -546.3490 0.0000 0.0000 0.0000 -19.2114 9.7692 13.6673 0.0000 0.0000 0.0000 0.2323 -4.5527 -8.6646 0.5403 -4.7096 -13.0820 0.0000 0.0000 0.0000 2.3771 17.8679 -39.5644 -3.7271 -11.7882 34.9867 -2.3293 -3.4982 -30.2471 -0.1177 -2.2119 6.0916 -1.5417 -1.3415 10.2002 1.0916 -1.8244 1.8126 2.2408 -0.8488 -3.7432 -4.7730 -5.8424 -17.1822 7.7592 -8.4475 20.2731 2.3486 -3.3339 9.8212 -0.0000 0.0000 0.0000 -61.0348 -23.1913 63.3616 98.1035 -59.7504 -67.0119 -0.0000 0.0000 -21.5468 22.4257 12.9929 5.3011 -7.1250 0.0000 -0.0000 -4.4991 43.9493 0.1169 -0.0000 0.0000 0.0000 67.5136 -26.8641 39.6191 -33.8604 43.9810 -14.0161 0.0000 -0.0000 -7.3776 -28.3688 6.5617 -3.5311 7.1250 -0.0000 -0.0000 -1.1839 -22.5324 -0.6400
0.00 0.00 0.00 -185.0390 65.4188 -543.3730 0.0000 0.0000 0.0000 -17.1013 7.0041 17.8818 0.0000 0.0000 0.0000 0.2582 -2.7109 -9.0453 0.8949 -6.0294 -16.8698 0.0000 0.0000 0.0000 4.7607 14.1472 -34.8598 -3.5518 -11.5388 34.1193 -2.1678 -4.4894 -29.6996 -0.3176 -3.6226 10.0172 -0.0025 0.1490 6.8799 0.7218 0.2403 0.0560 0.7226 0.1316 -3.8041 -6.1037 -6.8752 -12.4786 10.6061 -9.5327 10.3428 3.4671 -4.0870 5.9974 0.0000 0.0000 0.0000 -75.5202 -8.0941 71.3504 64.9987 -57.5011 -38.5299 -0.0000 0.0000 -19.6271 14.8025 14.9344 3.8960 -7.1250 0.0000 -0.0000 -11.8619 45.0665 -0.0197 0.0000 0.0000 0.0000 71.3204 -27.6643 40.9473 -30.0930 40.9730 -11.4706 0.0000 -0.0000 -5.8296 -27.2227 7.8755 -4.0320 7.1250 -0.0000 -0.0000 -0.2782 -21.1380 -0.1592
